<svg width="24" height="24" viewBox="0 0 24 24" fill="none" xmlns="http://www.w3.org/2000/svg">
<g opacity="0.3">
<path fill-rule="evenodd" clip-rule="evenodd" d="M3.04688 13.6974L4.95312 14.3026C6.31195 10.0223 8.62311 8 12 8C11.4477 8 11 7.55229 11 7C11 6.44772 11.4477 6 12 6C12.5523 6 13 6.44772 13 7C13 7.55197 12.5528 7.9995 12.0009 8C15.3773 8.00037 17.6882 10.0227 19.0469 14.3026L20.9531 13.6974C19.349 8.6444 16.3268 6 12 6C7.67318 6 4.65101 8.6444 3.04688 13.6974Z" fill="#D9D9D9"/>
<path fill-rule="evenodd" clip-rule="evenodd" d="M3.04688 13.6974L4.95312 14.3026C6.31195 10.0223 8.62311 8 12 8C11.4477 8 11 7.55229 11 7C11 6.44772 11.4477 6 12 6C12.5523 6 13 6.44772 13 7C13 7.55197 12.5528 7.9995 12.0009 8C15.3773 8.00037 17.6882 10.0227 19.0469 14.3026L20.9531 13.6974C19.349 8.6444 16.3268 6 12 6C7.67318 6 4.65101 8.6444 3.04688 13.6974Z" fill="#7B3BD4"/>
</g>
<path fill-rule="evenodd" clip-rule="evenodd" d="M12 11C13.3062 11 14.4175 10.1652 14.8293 9H18.2676C18.6134 9.5978 19.2597 10 20 10C21.1046 10 22 9.10457 22 8C22 6.89543 21.1046 6 20 6C19.2597 6 18.6134 6.4022 18.2676 7H14.8293C14.4175 5.83481 13.3062 5 12 5C10.6938 5 9.58255 5.83481 9.17071 7H5.73244C5.38663 6.4022 4.74028 6 4 6C2.89543 6 2 6.89543 2 8C2 9.10457 2.89543 10 4 10C4.74028 10 5.38663 9.5978 5.73244 9H9.17071C9.58255 10.1652 10.6938 11 12 11ZM13 8C13 8.55229 12.5523 9 12 9C11.4477 9 11 8.55229 11 8C11 7.44772 11.4477 7 12 7C12.5523 7 13 7.44772 13 8ZM4 20C5.65685 20 7 18.6569 7 17C7 15.3431 5.65685 14 4 14C2.34315 14 1 15.3431 1 17C1 18.6569 2.34315 20 4 20ZM5 17C5 17.5523 4.55229 18 4 18C3.44772 18 3 17.5523 3 17C3 16.4477 3.44772 16 4 16C4.55229 16 5 16.4477 5 17ZM20 20C21.6568 20 23 18.6569 23 17C23 15.3431 21.6568 14 20 14C18.3431 14 17 15.3431 17 17C17 18.6569 18.3431 20 20 20ZM21 17C21 17.5523 20.5523 18 20 18C19.4477 18 19 17.5523 19 17C19 16.4477 19.4477 16 20 16C20.5523 16 21 16.4477 21 17Z" fill="#D9D9D9"/>
<path fill-rule="evenodd" clip-rule="evenodd" d="M12 11C13.3062 11 14.4175 10.1652 14.8293 9H18.2676C18.6134 9.5978 19.2597 10 20 10C21.1046 10 22 9.10457 22 8C22 6.89543 21.1046 6 20 6C19.2597 6 18.6134 6.4022 18.2676 7H14.8293C14.4175 5.83481 13.3062 5 12 5C10.6938 5 9.58255 5.83481 9.17071 7H5.73244C5.38663 6.4022 4.74028 6 4 6C2.89543 6 2 6.89543 2 8C2 9.10457 2.89543 10 4 10C4.74028 10 5.38663 9.5978 5.73244 9H9.17071C9.58255 10.1652 10.6938 11 12 11ZM13 8C13 8.55229 12.5523 9 12 9C11.4477 9 11 8.55229 11 8C11 7.44772 11.4477 7 12 7C12.5523 7 13 7.44772 13 8ZM4 20C5.65685 20 7 18.6569 7 17C7 15.3431 5.65685 14 4 14C2.34315 14 1 15.3431 1 17C1 18.6569 2.34315 20 4 20ZM5 17C5 17.5523 4.55229 18 4 18C3.44772 18 3 17.5523 3 17C3 16.4477 3.44772 16 4 16C4.55229 16 5 16.4477 5 17ZM20 20C21.6568 20 23 18.6569 23 17C23 15.3431 21.6568 14 20 14C18.3431 14 17 15.3431 17 17C17 18.6569 18.3431 20 20 20ZM21 17C21 17.5523 20.5523 18 20 18C19.4477 18 19 17.5523 19 17C19 16.4477 19.4477 16 20 16C20.5523 16 21 16.4477 21 17Z" fill="#7B3BD4"/>
</svg>
