<svg width="24" height="24" viewBox="0 0 24 24" fill="none" xmlns="http://www.w3.org/2000/svg">
<g opacity="0.3">
<rect x="11" y="3" width="2" height="14" rx="1" fill="#D9D9D9"/>
<rect x="11" y="3" width="2" height="14" rx="1" fill="#7B3BD4"/>
</g>
<path d="M6.70711 9.29288C6.31658 8.90236 5.68342 8.90236 5.29289 9.29288C4.90237 9.68341 4.90237 10.3166 5.29289 10.7071L11.2929 16.7071C11.6715 17.0857 12.2811 17.0989 12.6757 16.7371L18.6757 11.2371C19.0828 10.864 19.1103 10.2314 18.7371 9.82426C18.364 9.41714 17.7314 9.38964 17.3243 9.76283L12.0301 14.6159L6.70711 9.29288Z" fill="#D9D9D9"/>
<path d="M6.70711 9.29288C6.31658 8.90236 5.68342 8.90236 5.29289 9.29288C4.90237 9.68341 4.90237 10.3166 5.29289 10.7071L11.2929 16.7071C11.6715 17.0857 12.2811 17.0989 12.6757 16.7371L18.6757 11.2371C19.0828 10.864 19.1103 10.2314 18.7371 9.82426C18.364 9.41714 17.7314 9.38964 17.3243 9.76283L12.0301 14.6159L6.70711 9.29288Z" fill="#7B3BD4"/>
<g opacity="0.3">
<rect x="3" y="19" width="18" height="2" rx="1" fill="#D9D9D9"/>
<rect x="3" y="19" width="18" height="2" rx="1" fill="#7B3BD4"/>
</g>
</svg>
